<?xml version="1.0" encoding="utf-8"?>
<!-- Generator: Adobe Illustrator 26.4.1, SVG Export Plug-In . SVG Version: 6.00 Build 0)  -->
<svg version="1.1" id="Layer_1" xmlns="http://www.w3.org/2000/svg" xmlns:xlink="http://www.w3.org/1999/xlink" x="0px" y="0px"
	 viewBox="0 0 595.3 841.9" style="enable-background:new 0 0 595.3 841.9;" xml:space="preserve">
<style type="text/css">
	.st0{fill:#FFFFFF;}
</style>
<path d="M15.9,647.3c0-149.9,0-299.7,0-449.6c0.3-1.4,0.7-2.7,0.9-4.1c0.5-5.3,1.4-10.6,3-15.7c4.4-14.1,12.8-24.9,26.4-31.2
	c7.7-3.6,15.8-5.4,24.3-6c1-0.1,2-0.3,3-0.5c134.7,0,269.3,0,404,0c0.8,0.1,1.7,0.3,2.5,0.3c11.5,0,23,0,34.5,0
	c7.7,0,15.3,0.6,22.8,2.6c18,4.8,30.1,15.9,35.7,33.8c2.4,7.6,3.4,15.4,3.4,23.4c0,0.8,0.2,1.5,0.3,2.3c0,146.5,0,293,0,439.5
	c-0.1,0.8-0.4,1.7-0.3,2.5c0,6.8-0.7,13.5-2.6,20.1c-4.2,15.1-13.1,26.1-27.8,32c-6,2.4-12.2,3.7-18.6,4.4c-2.3,0.2-4.5,0.6-6.8,0.9
	c-149.4,0-298.8,0-448.1,0c-0.8-0.1-1.5-0.4-2.3-0.4c-5.8-0.6-11.6-1.3-17.2-2.9c-14.9-4.4-25.8-13.4-31.7-27.9
	c-2.5-6-3.8-12.3-4.5-18.8C16.6,650.4,16.2,648.8,15.9,647.3z M449.2,280.8c-67.6,67.5-134.9,134.8-202.4,202.3
	C212,448.2,177.3,413.6,143,379.3c-19.7,19.7-39.3,39.3-58.6,58.6c52.8,52.8,105.9,105.9,159,159c86.7-86.9,173.7-174,260.8-261.2
	C486.1,317.6,467.8,299.3,449.2,280.8z"/>
<path class="st0" d="M449.2,280.8c18.6,18.5,36.9,36.7,55,54.7c-87.1,87.3-174.1,174.3-260.8,261.2c-53.1-53.1-106.2-106.2-159-159
	c19.2-19.2,38.8-38.8,58.6-58.6c34.3,34.3,69,69,103.8,103.8C314.3,415.7,381.7,348.4,449.2,280.8z"/>
</svg>
